# xmcd
# 
# Track frame offsets:
#     150
#     22148
#     38001
#     56100
#     70405
#     82534
#     101788
#     123158
# 
# Disc length: 1910
# 
# Revision: 8
# Processed by: cddbd v1.5.2PL0 Copyright (c) Steve Scherf et al.
# Submitted via: fre:ac v1.1beta2
# 
DISCID=63077408
DTITLE=Marvin Gaye - Let's Get It On_2016
DYEAR=1973
DGENRE=R&B
TTITLE0=Let's Get It On
TTITLE1=Please Stay
TTITLE2=If I Should Die Tonight
TTITLE3=Keep Gettin It On
TTITLE4=Come Get To This
TTITLE5=Distant Lover
TTITLE6=U Sure Love 2 Ball
TTITLE7=Just 2 Keep U Satisfied
EXTD=Entry cleaned up by <hairy@arse.com>\n YEAR: 1973
EXTT0=
EXTT1=
EXTT2=
EXTT3=
EXTT4=
EXTT5=
EXTT6=
EXTT7=
PLAYORDER=
